<?xml version="1.0" encoding="UTF-8"?>
<!-- Generated by Pixelmator Pro 4.0 -->
<svg width="1080" height="1080" viewBox="0 0 1080 1080" xmlns="http://www.w3.org/2000/svg">
    <g id="Group">
        <path id="Path" fill="#ffffff" stroke="none" d="M 71 620.869995 L 71 459.429993 L 101.690002 459.429993 L 101.690002 484.190002 L 104.059998 484.190002 C 106.330002 476.179993 111.550003 469.609985 119.699997 464.469971 C 127.849998 459.329956 137.169998 456.76001 147.639999 456.76001 C 153.669998 456.76001 158.410004 457.209961 161.869995 458.089966 L 161.869995 489.52002 C 158.01001 488.23999 152.089996 487.589966 144.080002 487.589966 C 131.919998 487.589966 122.010002 491.099976 114.360001 498.109985 C 106.699997 505.130005 102.870003 514.27002 102.870003 525.540039 L 102.870003 620.859985 L 71 620.859985 Z"/>
        <path id="path1" fill="#ffffff" stroke="none" d="M 281.809998 577.280029 L 312.5 577.280029 C 308.839996 591.809998 300.869995 603.219971 288.559998 611.530029 C 276.259979 619.830017 260.919983 623.97998 242.529999 623.97998 C 219.399994 623.97998 201.190002 616.539978 187.899994 601.669983 C 174.610001 586.789978 167.960007 566.459961 167.960007 540.660034 C 167.960007 514.859985 174.679993 494.359985 188.119995 479.140015 C 201.559998 463.920044 219.639999 456.309998 242.380005 456.309998 C 265.119995 456.309998 282.429993 463.530029 295.230011 477.959961 C 308.029999 492.390015 314.429993 512.299988 314.429993 537.700012 L 314.429993 548.820007 L 200.419998 548.820007 L 200.419998 550.599976 C 200.919998 564.829956 205.020004 576.099976 212.720001 584.400024 C 220.429993 592.700012 230.660004 596.849976 243.410004 596.849976 C 262.880005 596.849976 275.679993 590.330017 281.809998 577.280029 M 270.619995 494.780029 C 263.449982 487.219971 253.990005 483.440002 242.229996 483.440002 C 230.470001 483.440002 220.779999 487.25 213.169998 494.859985 C 205.559998 502.469971 201.309998 512.599976 200.419998 525.25 L 281.959991 525.25 C 281.559998 512.5 277.779999 502.349976 270.619995 494.780029"/>
        <path id="path2" fill="#ffffff" stroke="none" d="M 340.230011 620.869995 L 340.230011 459.429993 L 370.920013 459.429993 L 370.920013 485.369995 L 373.290009 485.369995 C 376.850006 476.179993 382.559998 469.040039 390.410004 463.950012 C 398.269989 458.859985 407.529999 456.320007 418.209991 456.320007 C 428.890015 456.320007 438.170013 458.890015 445.779999 464.030029 C 453.390015 469.170044 459.019989 476.280029 462.679993 485.380005 L 465.200012 485.380005 C 469.350006 476.48999 475.799988 469.420044 484.549988 464.179993 C 493.299988 458.940002 503.209991 456.320007 514.280029 456.320007 C 530.590027 456.320007 543.26001 461.01001 552.299988 470.400024 C 561.340027 479.790039 565.869995 492.890015 565.869995 509.690002 L 565.869995 620.880005 L 534 620.880005 L 534 518 C 534 496.349976 523.570007 485.530029 502.720001 485.530029 C 492.540009 485.530029 484.309998 488.73999 478.040009 495.160034 C 471.76001 501.589966 468.619995 509.640015 468.619995 519.329956 L 468.619995 620.880005 L 437.339996 620.880005 L 437.339996 514.880005 C 437.339996 505.790039 434.519989 498.619995 428.890015 493.380005 C 423.26001 488.140015 415.700012 485.52002 406.209991 485.52002 C 396.720001 485.52002 388.420013 489.030029 381.899994 496.040039 C 375.380005 503.059998 372.109985 511.75 372.109985 522.130005 L 372.109985 620.859985 L 340.23999 620.859985 Z"/>
        <path id="path3" fill="#ffffff" stroke="none" d="M 642.809998 623.539978 C 627 623.539978 614.070007 619.119995 604.039978 610.27002 C 594.01001 601.419983 588.98999 589.73999 588.98999 575.210022 C 588.98999 560.679993 594.179993 549.440002 604.549988 541.190002 C 614.929993 532.940002 629.75 528.219971 649.030029 527.030029 L 692.76001 524.51001 L 692.76001 510.579956 C 692.76001 501.97998 689.940002 495.380005 684.309998 490.790039 C 678.679993 486.190002 670.469971 483.900024 659.700012 483.900024 C 650.799988 483.900024 643.409973 485.459961 637.539978 488.570007 C 631.659973 491.679993 627.820007 496.109985 626.049988 501.839966 L 595.210022 501.839966 C 596.789978 488.01001 603.580017 476.959961 615.590027 468.709961 C 627.599976 460.459961 642.799988 456.329956 661.179993 456.329956 C 681.340027 456.329956 696.929993 461.099976 707.950012 470.630005 C 718.969971 480.170044 724.47998 493.48999 724.47998 510.589966 L 724.47998 620.890015 L 693.789978 620.890015 L 693.789978 598.210022 L 691.27002 598.210022 C 686.429993 606.320007 679.780029 612.570007 671.330017 616.960022 C 662.880005 621.359985 653.369995 623.559998 642.789978 623.559998 M 650.940002 596.72998 C 662.900024 596.72998 672.859985 593.369995 680.809998 586.650024 C 688.76001 579.929993 692.73999 571.530029 692.73999 561.450012 L 692.73999 547.959961 L 653.299988 550.47998 C 642.22998 551.170044 634.080017 553.440002 628.840027 557.299988 C 623.599976 561.160034 620.98999 566.640015 620.98999 573.76001 C 620.98999 580.880005 623.75 586.48999 629.289978 590.590027 C 634.830017 594.690002 642.039978 596.73999 650.940002 596.73999"/>
        <path id="path4" fill="#ffffff" stroke="none" d="M 757.409973 620.869995 L 757.409973 459.429993 L 788.099976 459.429993 L 788.099976 484.190002 L 790.469971 484.190002 C 792.73999 476.179993 797.960022 469.609985 806.109985 464.469971 C 814.26001 459.329956 823.580017 456.76001 834.049988 456.76001 C 840.080017 456.76001 844.820007 457.209961 848.280029 458.089966 L 848.280029 489.52002 C 844.419983 488.23999 838.5 487.589966 830.48999 487.589966 C 818.330017 487.589966 808.419983 491.099976 800.77002 498.109985 C 793.109985 505.130005 789.280029 514.27002 789.280029 525.540039 L 789.280029 620.859985 L 757.409973 620.859985 Z"/>
        <path id="path5" fill="#ffffff" stroke="none" d="M 902.409973 526.72998 L 966.450012 459.420044 L 1004.109985 459.420044 L 937.690002 528.650024 L 1008.549988 620.869995 L 969.409973 620.869995 L 913.969971 549.709961 L 899.880005 563.049988 L 899.880005 620.869995 L 868.01001 620.869995 L 868.01001 456.75 L 899.880005 456.309998 L 899.880005 526.72998 L 902.409973 526.72998 Z"/>
    </g>
</svg>
