<?xml version="1.0" encoding="UTF-8"?>
<svg id="Layer_1" data-name="Layer 1" xmlns="http://www.w3.org/2000/svg" xmlns:xlink="http://www.w3.org/1999/xlink" viewBox="0 0 1080 1080">
  <defs>
    <style>
      .cls-1 {
        fill: url(#linear-gradient-2);
      }

      .cls-2, .cls-3, .cls-4 {
        fill: none;
      }

      .cls-3 {
        clip-path: url(#clippath);
      }

      .cls-4 {
        mask: url(#mask);
      }

      .cls-5 {
        fill: url(#linear-gradient);
      }

      .cls-6 {
        fill: #ffffff;
      }
    </style>
    <clipPath id="clippath">
      <path class="cls-2" d="m52.21,632.69h923.34c3.92,0,7.11,3.19,7.11,7.11v6.11c0,3.92-3.19,7.11-7.11,7.11H52.2c-3.92,0-7.1-3.18-7.1-7.1v-6.11c0-3.92,3.19-7.11,7.11-7.11Z"/>
    </clipPath>
    <linearGradient id="linear-gradient" x1="-8032.48" y1="6207.06" x2="-8028.91" y2="6207.06" gradientTransform="translate(2111569.71 1632313.13) scale(262.87 -262.87)" gradientUnits="userSpaceOnUse">
      <stop offset="0" stop-color="#000"/>
      <stop offset="1" stop-color="#fff"/>
    </linearGradient>
    <mask id="mask" x="45.1" y="632.69" width="937.55" height="20.33" maskUnits="userSpaceOnUse">
      <rect class="cls-5" x="45.1" y="632.69" width="937.55" height="20.33"/>
    </mask>
    <linearGradient id="linear-gradient-2" x1="-8032.48" y1="6207.06" x2="-8028.91" y2="6207.06" gradientTransform="translate(2111569.71 1632313.13) scale(262.87 -262.87)" gradientUnits="userSpaceOnUse">
      <stop offset="0" stop-color="#324c7a"/>
      <stop offset="1" stop-color="#324c7a"/>
    </linearGradient>
  </defs>
  <g>
    <path class="cls-6" d="m40,578.49v-161.44h30.69v24.76h2.37c2.27-8.01,7.49-14.58,15.64-19.72,8.15-5.14,17.47-7.71,27.94-7.71,6.03,0,10.77.45,14.23,1.33v31.43c-3.86-1.28-9.78-1.93-17.79-1.93-12.16,0-22.07,3.51-29.72,10.52-7.66,7.02-11.49,16.16-11.49,27.43v95.32h-31.87Z"/>
    <path class="cls-6" d="m250.81,534.91h30.69c-3.66,14.53-11.63,25.94-23.94,34.25-12.3,8.3-27.64,12.45-46.03,12.45-23.13,0-41.34-7.44-54.63-22.31-13.29-14.88-19.94-35.21-19.94-61.01s6.72-46.3,20.16-61.52c13.44-15.22,31.52-22.83,54.26-22.83s40.05,7.22,52.85,21.65c12.8,14.43,19.2,34.34,19.2,59.74v11.12h-114.01v1.78c.5,14.23,4.6,25.5,12.3,33.8,7.71,8.3,17.94,12.45,30.69,12.45,19.47,0,32.27-6.52,38.4-19.57m-11.19-82.5c-7.17-7.56-16.63-11.34-28.39-11.34s-21.45,3.81-29.06,11.42c-7.61,7.61-11.86,17.74-12.75,30.39h81.54c-.4-12.75-4.18-22.9-11.34-30.47"/>
    <path class="cls-6" d="m309.23,578.49v-161.44h30.69v25.94h2.37c3.56-9.19,9.27-16.33,17.12-21.42,7.86-5.09,17.12-7.63,27.8-7.63s19.96,2.57,27.57,7.71c7.61,5.14,13.24,12.25,16.9,21.35h2.52c4.15-8.89,10.6-15.96,19.35-21.2,8.75-5.24,18.66-7.86,29.73-7.86,16.31,0,28.98,4.69,38.02,14.08,9.04,9.39,13.57,22.49,13.57,39.29v111.19h-31.87v-102.88c0-21.65-10.43-32.47-31.28-32.47-10.18,0-18.41,3.21-24.68,9.63-6.28,6.43-9.42,14.48-9.42,24.17v101.55h-31.28v-106c0-9.09-2.82-16.26-8.45-21.5-5.63-5.24-13.19-7.86-22.68-7.86s-17.79,3.51-24.31,10.52c-6.52,7.02-9.79,15.71-9.79,26.09v98.73h-31.87Z"/>
    <path class="cls-6" d="m611.81,581.16c-15.81,0-28.74-4.42-38.77-13.27-10.03-8.85-15.05-20.53-15.05-35.06s5.19-25.77,15.56-34.02c10.38-8.25,25.2-12.97,44.48-14.16l43.73-2.52v-13.93c0-8.6-2.82-15.2-8.45-19.79-5.63-4.6-13.84-6.89-24.61-6.89-8.9,0-16.29,1.56-22.16,4.67-5.88,3.11-9.72,7.54-11.49,13.27h-30.84c1.58-13.83,8.37-24.88,20.38-33.13,12.01-8.25,27.21-12.38,45.59-12.38,20.16,0,35.75,4.77,46.77,14.3,11.02,9.54,16.53,22.86,16.53,39.96v110.3h-30.69v-22.68h-2.52c-4.84,8.11-11.49,14.36-19.94,18.75-8.45,4.4-17.96,6.6-28.54,6.6m8.15-26.83c11.96,0,21.92-3.36,29.87-10.08,7.95-6.72,11.93-15.12,11.93-25.2v-13.49l-39.44,2.52c-11.07.69-19.22,2.96-24.46,6.82-5.24,3.86-7.85,9.34-7.85,16.46s2.76,12.73,8.3,16.83c5.54,4.1,12.75,6.15,21.65,6.15"/>
    <path class="cls-6" d="m726.41,578.49v-161.44h30.69v24.76h2.37c2.27-8.01,7.49-14.58,15.64-19.72,8.15-5.14,17.47-7.71,27.94-7.71,6.03,0,10.77.45,14.23,1.33v31.43c-3.86-1.28-9.78-1.93-17.79-1.93-12.16,0-22.07,3.51-29.72,10.52-7.66,7.02-11.49,16.16-11.49,27.43v95.32h-31.87Z"/>
    <polygon class="cls-6" points="871.41 484.36 935.45 417.05 973.11 417.05 906.69 486.28 977.55 578.5 938.41 578.5 882.97 507.34 868.88 520.68 868.88 578.5 837.01 578.5 837.01 414.38 868.88 413.94 868.88 484.36 871.41 484.36"/>
  </g>
  <g class="cls-3">
    <g class="cls-4">
      <rect class="cls-1" x="45.1" y="632.69" width="937.55" height="20.33" rx="10.16" ry="10.16"/>
    </g>
  </g>
</svg>
